# xmcd
#
# Track frame offsets: 
#        182
#        19345
#        41295
#        57938
#        79618
#        101575
#        120873
#        138560
#        161490
#        182855
#        197460
#        217583
#
# Disc length: 3187 seconds
#
# Revision: 10
# Processed by: cddbd v1.5.1PL0 Copyright (c) Steve Scherf et al.
# Submitted via: ExactAudioCopy v0.95a4
#
DISCID=910c710c
DTITLE=Emmylou Harris - Wrecking Ball
DYEAR=1995
DGENRE=Country
TTITLE0=Where Will I Be
TTITLE1=Goodbye
TTITLE2=All My Tears
TTITLE3=Wrecking Ball
TTITLE4=Goin' Back To Harlan
TTITLE5=Deeper Well
TTITLE6=Every Grain Of Sand
TTITLE7=Sweet Old World
TTITLE8=May This Be Love
TTITLE9=Orphan Girl
TTITLE10=Blackhawk
TTITLE11=Waltz Across Texas Tonight
EXTD=© 1995, Elektra Entertainment Group.\nProduced by Daniel Lanois.
EXTT0=
EXTT1=
EXTT2=
EXTT3=
EXTT4=
EXTT5=
EXTT6=
EXTT7=
EXTT8=
EXTT9=
EXTT10=
EXTT11=
PLAYORDER=
